<svg width="96" height="96" viewBox="0 0 96 96" fill="none" xmlns="http://www.w3.org/2000/svg">
<path d="M61 24.8125C61 21.6023 63.6023 19 66.8125 19H86.1875C89.3977 19 92 21.6023 92 24.8125V44.1875C92 47.3977 89.3977 50 86.1875 50H66.8125C63.6023 50 61 47.3977 61 44.1875V24.8125Z" fill="#2BA5E7"/>
<path d="M9 21.8125C9 16.9455 12.9455 13 17.8125 13H47.1875C52.0545 13 56 16.9455 56 21.8125V51.1875C56 56.0545 52.0545 60 47.1875 60H17.8125C12.9455 60 9 56.0545 9 51.1875V21.8125Z" fill="#EF5198"/>
<path d="M16 28C16 21.3726 21.3726 16 28 16H68C74.6274 16 80 21.3726 80 28V68C80 74.6274 74.6274 80 68 80H28C21.3726 80 16 74.6274 16 68V28Z" fill="#32B9A6"/>
<path d="M28.7784 55H24.1378V41.9091H28.8168C30.1335 41.9091 31.267 42.1712 32.2173 42.6953C33.1676 43.2152 33.8984 43.9631 34.4098 44.9389C34.9254 45.9148 35.1832 47.0824 35.1832 48.4418C35.1832 49.8054 34.9254 50.9773 34.4098 51.9574C33.8984 52.9375 33.1634 53.6896 32.2045 54.2138C31.25 54.7379 30.108 55 28.7784 55ZM26.9055 52.6286H28.6634C29.4815 52.6286 30.1697 52.4837 30.728 52.1939C31.2905 51.8999 31.7124 51.446 31.9936 50.8324C32.2791 50.2145 32.4219 49.4176 32.4219 48.4418C32.4219 47.4744 32.2791 46.6839 31.9936 46.0703C31.7124 45.4567 31.2926 45.005 30.7344 44.7152C30.1761 44.4254 29.4879 44.2805 28.6697 44.2805H26.9055V52.6286ZM38.7516 55H35.7857L40.3049 41.9091H43.8716L48.3844 55H45.4185L42.1394 44.9006H42.0371L38.7516 55ZM38.5662 49.8544H45.5719V52.0149H38.5662V49.8544ZM47.8619 44.1911V41.9091H58.6133V44.1911H54.6055V55H51.8697V44.1911H47.8619ZM71.3366 46.4922H68.5369C68.4858 46.13 68.3814 45.8082 68.2237 45.527C68.0661 45.2415 67.8636 44.9986 67.6165 44.7983C67.3693 44.598 67.0838 44.4446 66.7599 44.3381C66.4403 44.2315 66.093 44.1783 65.718 44.1783C65.0405 44.1783 64.4503 44.3466 63.9474 44.6832C63.4446 45.0156 63.0547 45.5014 62.7777 46.1406C62.5007 46.7756 62.3622 47.5469 62.3622 48.4545C62.3622 49.3878 62.5007 50.1719 62.7777 50.8068C63.0589 51.4418 63.451 51.9212 63.9538 52.245C64.4567 52.5689 65.0384 52.7308 65.6989 52.7308C66.0696 52.7308 66.4126 52.6818 66.728 52.5838C67.0476 52.4858 67.331 52.343 67.5781 52.1555C67.8253 51.9638 68.0298 51.7315 68.1918 51.4588C68.358 51.1861 68.473 50.875 68.5369 50.5256L71.3366 50.5384C71.2642 51.1392 71.0831 51.7188 70.7933 52.277C70.5078 52.831 70.1222 53.3274 69.6364 53.7663C69.1548 54.201 68.5795 54.5462 67.9105 54.8018C67.2457 55.0533 66.4936 55.179 65.6541 55.179C64.4865 55.179 63.4425 54.9148 62.522 54.3864C61.6058 53.858 60.8814 53.093 60.3487 52.0916C59.8203 51.0902 59.5561 49.8778 59.5561 48.4545C59.5561 47.027 59.8246 45.8125 60.3615 44.8111C60.8984 43.8097 61.6271 43.0469 62.5476 42.5227C63.468 41.9943 64.5036 41.7301 65.6541 41.7301C66.4126 41.7301 67.1158 41.8366 67.7635 42.0497C68.4155 42.2628 68.9929 42.5739 69.4957 42.983C69.9986 43.3878 70.4077 43.8842 70.723 44.4723C71.0426 45.0604 71.2472 45.7337 71.3366 46.4922Z" fill="white"/>
<path d="M62 66.3125C62 63.9308 63.9308 62 66.3125 62H80.6875C83.0692 62 85 63.9308 85 66.3125V80.6875C85 83.0692 83.0692 85 80.6875 85H66.3125C63.9308 85 62 83.0692 62 80.6875V66.3125Z" fill="#FAC710"/>
</svg>
