<svg xmlns="http://www.w3.org/2000/svg" width="96" height="96" viewBox="0 0 96 96" fill="none">
  <path d="M48 83.5212C56.179 83.9554 63.9226 91.7614 71.5653 88.8163C79.0436 85.9346 81.2629 76.4455 84.8976 69.3028C88.3679 62.4833 93.2567 55.5961 92.3358 48C91.4294 40.5231 85.1459 35.0487 80.0703 29.4842C75.8064 24.8096 70.3148 21.9385 65.1851 18.2345C59.4371 14.0839 54.9702 7.62433 48 6.32696C40.7176 4.97148 33.2005 7.55821 26.6766 11.0668C20.0431 14.6345 14.0932 19.7358 10.6308 26.4249C7.23359 32.9879 7.26984 40.6155 7.55912 48C7.83995 55.1684 9.19989 62.1435 12.2838 68.6208C15.5414 75.4628 18.8427 83.4708 25.8364 86.3885C32.8307 89.3064 40.4321 83.1194 48 83.5212Z" fill="#1C82AD"/>
  <path d="M75.3116 26.7605V21.6204C75.3116 18.793 73.0116 16.493 70.1842 16.493H68.475C65.6476 16.493 63.3476 18.793 63.3476 21.6204V26.7478H32.5828V21.6204C32.5828 18.793 30.2828 16.493 27.4554 16.493H25.7462C22.9187 16.493 20.6188 18.793 20.6188 21.6204V26.7605C17.7815 26.8283 15.4913 29.1464 15.4913 31.9996V74.4798C15.4913 77.3757 17.8472 79.7316 20.7431 79.7316H75.1874C78.0833 79.7316 80.4392 77.3757 80.4392 74.4798V31.9996C80.4391 29.1464 78.1489 26.8283 75.3116 26.7605ZM66.7658 21.6204C66.7658 20.6782 67.5328 19.9112 68.475 19.9112H70.1842C71.1264 19.9112 71.8933 20.6782 71.8933 21.6204V35.2936C71.8933 36.2358 71.1264 37.0028 70.1842 37.0028H68.475C67.5328 37.0028 66.7658 36.2358 66.7658 35.2936V21.6204ZM24.037 21.6204C24.037 20.6782 24.804 19.9112 25.7462 19.9112H27.4554C28.3976 19.9112 29.1645 20.6782 29.1645 21.6204V35.2936C29.1645 36.2358 28.3976 37.0028 27.4554 37.0028H25.7462C24.804 37.0028 24.037 36.2358 24.037 35.2936V21.6204ZM77.0208 74.4798C77.0208 75.4905 76.1979 76.3133 75.1873 76.3133H20.7431C19.7325 76.3133 18.9096 75.4905 18.9096 74.4798V31.9996C18.9096 31.0307 19.6657 30.2346 20.6188 30.1703V35.2936C20.6188 38.121 22.9187 40.421 25.7462 40.421H27.4554C30.2828 40.421 32.5828 38.121 32.5828 35.2936V30.1662H63.3476V35.2936C63.3476 38.121 65.6476 40.421 68.475 40.421H70.1842C73.0116 40.421 75.3116 38.121 75.3116 35.2936V30.1703C76.2646 30.2346 77.0208 31.0307 77.0208 31.9996V74.4798Z" fill="#03C988"/>
  <path d="M63.2125 45.365L59.4611 41.8696L45.2204 57.1525L36.512 47.5732L32.7179 51.0223L45.1764 64.5134L63.2125 45.365Z" fill="white"/>
</svg>